<?xml version="1.0" encoding="utf-8"?>
<!-- Generator: Adobe Illustrator 18.0.0, SVG Export Plug-In . SVG Version: 6.00 Build 0)  -->
<!DOCTYPE svg PUBLIC "-//W3C//DTD SVG 1.1//EN" "http://www.w3.org/Graphics/SVG/1.1/DTD/svg11.dtd">
<svg version="1.1" id="Layer_1" xmlns="http://www.w3.org/2000/svg" xmlns:xlink="http://www.w3.org/1999/xlink" x="0px" y="0px"
	 viewBox="0 0 40 40" enable-background="new 0 0 40 40" xml:space="preserve">
<circle fill="#FDB913" cx="20" cy="20" r="20"/>
<g>
	<rect x="15.5" y="30.8" fill="#FFFFFF" width="9.1" height="2.7"/>
	<polygon fill="#FFFFFF" points="21.1,32 18.9,32 17.2,15 22.8,15 	"/>
	<g>
		<path fill="#FFFFFF" d="M23.8,12.2c-0.6-0.3-1.2-0.5-1.8-0.8c-0.2-0.1-0.6-0.3-0.8-0.4c-0.3-0.3-0.4-0.6-0.2-1
			c0.4-0.7,0.4-1.5,0.4-2.3c-0.1-0.7-0.6-1.1-1.4-1.1c-0.8,0-1.3,0.4-1.4,1.1c-0.1,0.8,0,1.6,0.4,2.3c0.2,0.4,0.1,0.7-0.2,1
			c-0.2,0.2-0.6,0.3-0.8,0.4c-0.6,0.3-1.2,0.5-1.8,0.8c-0.9,0.5-0.8,1.2-0.6,2c0.3,1.2,0.5,2.3,0.9,4c0.1,0.4,0.5,1,0.8,1.1
			c0.3,0.2,0.5,0.7,0.6,0.7H20h2.2c0.1,0,0.3-0.5,0.6-0.7c0.3-0.2,0.7-0.7,0.8-1.1c0.3-1.8,0.6-2.8,0.9-4.1
			C24.6,13.4,24.7,12.7,23.8,12.2z"/>
	</g>
</g>
</svg>
