<?xml version="1.0" encoding="utf-8"?>
<!-- Generator: Adobe Illustrator 18.0.0, SVG Export Plug-In . SVG Version: 6.00 Build 0)  -->
<!DOCTYPE svg PUBLIC "-//W3C//DTD SVG 1.1//EN" "http://www.w3.org/Graphics/SVG/1.1/DTD/svg11.dtd">
<svg version="1.1" id="Layer_1" xmlns="http://www.w3.org/2000/svg" xmlns:xlink="http://www.w3.org/1999/xlink" x="0px" y="0px"
	 viewBox="0 0 40 40" enable-background="new 0 0 40 40" xml:space="preserve">
<g>
	<circle fill="#00427A" cx="20" cy="20" r="20"/>
	<g>
		<path fill="#FFFFFF" d="M25.6,10.2c0.1-1-0.6-1.9-1.6-2c-1-0.1-1.9,0.6-2,1.6c-0.1,0.5-0.2,1.2-0.4,2c-0.9,3.2-4.8,6.9-4.8,6.9
			v9.6c0,0,0.1,1.8,3.2,1.9c0.1,0,0.3,0.1,0.4,0.1h7.2c0.9,0,1.7-0.7,1.7-1.7c0-0.4-0.1-0.7-0.4-1c0.8-0.1,1.4-0.8,1.4-1.6
			c0-0.7-0.4-1.2-1-1.5h0.4c0.9,0,1.7-0.7,1.7-1.7c0-0.7-0.4-1.2-1-1.5h0c0.9,0,1.7-0.7,1.7-1.7c0-0.9-0.7-1.7-1.7-1.7h-6.6
			C24.1,16.9,25.5,12.7,25.6,10.2"/>
		<rect x="9.2" y="18" fill="#FFFFFF" width="6.3" height="11.9"/>
	</g>
</g>
</svg>
