<?xml version="1.0" encoding="UTF-8" standalone="no"?>
<!-- Created with Inkscape (http://www.inkscape.org/) -->

<svg
   xmlns:dc="http://purl.org/dc/elements/1.1/"
   xmlns:cc="http://creativecommons.org/ns#"
   xmlns:rdf="http://www.w3.org/1999/02/22-rdf-syntax-ns#"
   xmlns:svg="http://www.w3.org/2000/svg"
   xmlns="http://www.w3.org/2000/svg"
   version="1.1"
   width="100"
   height="100"
   viewBox="0 0 88.1 236.2"
   id="svg9001"
   xml:space="preserve"><metadata
     id="metadata9029"><rdf:RDF><cc:Work
         rdf:about=""><dc:format>image/svg+xml</dc:format><dc:type
           rdf:resource="http://purl.org/dc/dcmitype/StillImage" /><dc:title></dc:title></cc:Work></rdf:RDF></metadata><defs
     id="defs9027" /><style
     id="style9003" /><g
     transform="translate(-105.86643,-16.8)"
     id="g9005"><polygon
       points="177.3,89 160.9,253 139.1,253 122.7,89 "
       id="polygon9007"
       style="fill:#005689;fill-opacity:1" /><path
       d="m 186.8,71.9 c -5.5,-3.1 -11.7,-5.3 -17.6,-8 -2.4,-1.1 -6.3,-2.4 -8,-4.1 -2.8,-2.7 -4.1,-5.6 -1.9,-9.6 3.8,-7 4.3,-14.8 3.7,-22.5 -0.6,-7.1 -5.7,-10.9 -13.1,-10.9 -7.5,0 -12.5,3.8 -13.1,10.9 -0.6,7.7 -0.1,15.5 3.7,22.5 2.2,4 0.8,7 -1.9,9.6 -1.7,1.6 -5.6,2.9 -8,4.1 -5.8,2.7 -12.1,4.9 -17.6,8 -8.3,4.7 -7.7,12.1 -6.3,19.2 2.5,11.9 5.2,22.2 8.4,39.3 0.7,3.9 4.6,8.9 7.4,10.7 3.1,1.9 4.8,3 5.8,6 h 21.7 21.5 c 1,-3 2.7,-4 5.8,-6 2.8,-1.8 6.7,-6.6 7.4,-10.6 3.2,-17.1 5.9,-27.4 8.4,-39.3 1.5,-7.2 2.1,-14.6 -6.3,-19.3 z"
       id="path9009"
       style="fill:#005689;fill-opacity:1" /></g><g
     transform="translate(-105.86643,-16.8)"
     id="g9011"
     style="display:none"><g
       id="g9013"
       style="display:inline"><path
         d="m 388,207.8 c -1.1,-0.5 -2,-1.1 -2.7,-1.9 -4.7,-5.9 -6.4,-12.7 -4.2,-20 3.2,-10.4 4.3,-20.9 3.9,-31.7 -0.2,-4.4 -0.7,-8.9 -0.1,-13.3 2.2,-16.9 8,-17.2 5.6,-42.2 -0.5,-4.7 1.1,-8.1 4.6,-10.1 3.6,-2.1 5.1,-5.9 5.6,-10.8 0.5,-4.8 1.2,-8.9 1.9,-12.2 1.4,-6.6 3.1,-13.1 4.1,-19.8 0.9,-6.3 -1.7,-9.4 -8.2,-12.3 -4.9,-2.1 -12.1,-4.5 -16.1,-7.2 -3.1,-2.1 -3.4,-4.7 -1.8,-8.1 2.6,-5.5 3.1,-11.3 2.4,-17.2 -0.7,-5.7 -4,-8.1 -10.4,-8 -5.6,0.1 -9,2.9 -9.4,8.4 -0.5,5.9 -0.1,11.9 2.8,17.2 1.7,3.1 0.6,5.3 -1.4,7.4 -1.3,1.2 -4.2,2.2 -6,3.1 -4.4,2.1 -9,3.8 -13.1,6.1 -6.2,3.6 -5.8,9.2 -4.7,14.7 1.8,9.1 3.9,17 6.3,30 0.6,3 2.5,6.7 4.5,8 4.9,3.2 5.3,7.9 5.2,13.9 -0.1,14.8 1.9,10.6 2.3,20.8 0.5,9.8 1.8,19.6 2.1,29.4 0.2,10.7 0.2,21.3 3.6,31.7 2.6,7.9 1.6,15.8 -4.1,22.4 -0.5,0.6 -1.3,1.2 -2.2,1.6 h -23.4 v 3.3 h 1.1 v 6.4 h 74.1 V 211 h 1.3 v -3.3 H 388 z"
         id="path9015"
         style="fill:#ffb900" /></g><g
       id="g9017"
       style="display:inline"><path
         d="m 437.4,332.9 c 3.6,-2.1 5.1,-5.9 5.6,-10.8 0.5,-4.8 1.2,-8.9 1.9,-12.2 1.4,-6.6 3.1,-13.1 4.1,-19.8 0.9,-6.3 -1.7,-9.4 -8.2,-12.3 -4.9,-2.1 -12.1,-4.5 -16.1,-7.2 -3.1,-2.1 -3.4,-4.7 -1.8,-8.1 2.6,-5.5 3.1,-11.3 2.4,-17.2 -0.7,-5.7 -4.7,-8 -10,-8 -5.6,0 -9.3,2.9 -9.8,8.4 -0.5,5.9 -0.1,11.9 2.8,17.2 1.7,3.1 0.6,5.3 -1.4,7.4 -1.3,1.2 -4.2,2.2 -6,3.1 -4.4,2.1 -9,3.8 -13.1,6.1 -6.2,3.6 -5.8,9.2 -4.7,14.7 1.8,9.1 3.9,17 6.3,30 0.6,3 2.5,6.7 4.5,8 2.3,1.5 3.6,3.3 4.3,5.4 h 35.1 c 0.8,-1.9 2.1,-3.5 4.1,-4.7 z"
         id="path9019"
         style="fill:#ffb900" /></g><g
       id="g9021"
       style="display:inline"><path
         d="m 476.5,113.3 c 3.6,-2.1 5.1,-5.9 5.6,-10.8 0.5,-4.8 1.2,-8.9 1.9,-12.2 1.4,-6.6 3.1,-13.1 4.1,-19.8 0.9,-6.3 -1.7,-9.4 -8.2,-12.3 -4.9,-2.1 -12.1,-4.5 -16.1,-7.2 -3.1,-2.1 -3.4,-4.7 -1.8,-8.1 2.6,-5.5 3.1,-11.3 2.4,-17.2 -0.7,-5.7 -4,-8.1 -10.4,-8 -5.6,0.1 -9,2.9 -9.4,8.4 -0.5,5.9 -0.1,11.9 2.8,17.2 1.7,3.1 0.6,5.3 -1.4,7.4 -1.3,1.2 -4.2,2.2 -6,3.1 -4.4,2.1 -9,3.8 -13.1,6.1 -6.2,3.6 -5.8,9.2 -4.7,14.7 1.8,9.1 3.9,17 6.3,30 0.6,3 2.5,6.7 4.5,8 2.3,1.5 3.6,3.3 4.3,5.4 h 35.1 c 0.8,-1.9 2.1,-3.5 4.1,-4.7 z"
         id="path9023"
         style="fill:#ffb900" /></g></g></svg>