<?xml version="1.0" encoding="UTF-8" standalone="no"?>
<!-- Created with Inkscape (http://www.inkscape.org/) -->

<svg
   xmlns:dc="http://purl.org/dc/elements/1.1/"
   xmlns:cc="http://creativecommons.org/ns#"
   xmlns:rdf="http://www.w3.org/1999/02/22-rdf-syntax-ns#"
   xmlns:svg="http://www.w3.org/2000/svg"
   xmlns="http://www.w3.org/2000/svg"
   version="1.1"
   width="10.03125"
   height="29.454115"
   id="svg3303">
  <defs
     id="defs3305" />
  <metadata
     id="metadata3308">
    <rdf:RDF>
      <cc:Work
         rdf:about="">
        <dc:format>image/svg+xml</dc:format>
        <dc:type
           rdf:resource="http://purl.org/dc/dcmitype/StillImage" />
        <dc:title></dc:title>
      </cc:Work>
    </rdf:RDF>
  </metadata>
  <g
     transform="translate(-369.98438,-517.63512)"
     id="layer1">
    <path
       d="m 376.93688,545.82049 c -0.13875,-0.0612 -0.26875,-0.14625 -0.35125,-0.24875 -0.615,-0.77125 -0.84625,-1.67125 -0.555,-2.62375 0.41375,-1.36 0.565,-2.74 0.50875,-4.155 -0.025,-0.58125 -0.0925,-1.1725 -0.0175,-1.74375 0.28875,-2.22125 1.05,-2.2575 0.7325,-5.535 -0.0613,-0.62125 0.145,-1.05875 0.60125,-1.3225 0.475,-0.27375 0.67375,-0.77875 0.73375,-1.42125 0.0612,-0.635 0.16,-1.1625 0.25,-1.5975 0.18,-0.86625 0.4075,-1.72625 0.53375,-2.59875 0.125,-0.83 -0.21875,-1.23875 -1.07625,-1.61125 -0.645,-0.28125 -1.59125,-0.59625 -2.11,-0.94875 -0.4125,-0.28 -0.4475,-0.61875 -0.2325,-1.06875 0.3425,-0.7175 0.40875,-1.48875 0.31875,-2.2625 -0.0863,-0.7525 -0.5225,-1.06 -1.3675,-1.0475 -0.73,0.0125 -1.17625,0.38125 -1.235,1.09875 -0.0613,0.77625 -0.0125,1.55625 0.36375,2.26 0.2175,0.40375 0.0825,0.70125 -0.1875,0.97 -0.16625,0.16375 -0.5475,0.2925 -0.78125,0.4075 -0.5725,0.27625 -1.1825,0.495 -1.72125,0.80625 -0.81625,0.47 -0.76,1.2125 -0.61625,1.925 0.2425,1.19375 0.50875,2.23 0.8225,3.945 0.0725,0.39625 0.3225,0.875 0.59625,1.0525 0.6475,0.41625 0.69375,1.03625 0.68875,1.82625 -0.01,1.94625 0.24375,1.3975 0.30625,2.7325 0.06,1.28625 0.24125,2.56875 0.27,3.8575 0.0312,1.40375 0.0213,2.7925 0.47,4.15875 0.34,1.03625 0.20875,2.07125 -0.53625,2.93875 -0.0713,0.0825 -0.175,0.15375 -0.2875,0.20625 l -3.07375,0 0,0.4325 0.1425,0 0,0.83625 9.7225,0 0,-0.83625 0.16625,0 0,-0.4325 -3.07875,0"
       id="path3136"
       style="fill:#fab10b;fill-opacity:1;fill-rule:nonzero;stroke:none" />
  </g>
</svg>
