<svg xmlns:svg="http://www.w3.org/2000/svg" xmlns="http://www.w3.org/2000/svg" version="1.1" x="0" y="0" viewBox="0 0 101.5 268.2" enable-background="new 0 0 300 300" xml:space="preserve" width="100" height="100"><style>.s0{fill:#ffb900;}</style><circle cx="150.4" cy="30.4" r="22" transform="translate(-99.700004,-8.3999996)"/><path d="m101.5 148.3c-1.4 4-3.7 6.9-8.2 7.5-5 0.6-9.4-2.5-10.3-7.5-0.3-1.4-0.3-2.9-0.3-4.3 0-18.9 0-37.7 0-56.6 0-1 0-1.9 0-3-1.5 0-2.7 0-4.4 0 0 1 0 2 0 3 0 55.3 0 110.5 0 165.8 0 1.8 0 3.6-0.3 5.3-1.3 6-6.1 9.7-12.2 9.7-6.2 0-11.2-3.9-12.4-9.9-0.3-1.6-0.4-3.4-0.4-5.1 0-31.6 0-63.3 0-94.9 0-1 0-1.9 0-3.1-1.5 0-2.8 0-4.4 0 0 1 0 2 0 2.9 0 32 0 63.9 0 95.9 0 5.8-1.8 10.5-7.4 13-7.9 3.5-16.4-1.2-17.6-9.8-0.2-1.4-0.2-2.9-0.2-4.4 0-55.1 0-110.2 0-165.3 0-1 0-2.1 0-3.3-1.5 0-2.8 0-4.4 0 0 1 0 2 0 2.9 0 18.9 0 37.9 0 56.8 0 1.4-0.1 2.9-0.4 4.3-1 4.7-4.8 7.6-9.7 7.3-4.8-0.3-8.3-3.6-8.8-8.4-0.1-0.8-0.1-1.6-0.1-2.4 0-21.9 0-43.9 0-65.8 0-13 7.1-23.6 18.7-27.5 2.8-0.9 5.8-1.5 8.8-1.5 15.7-0.1 31.4-0.3 47.1 0.1 13.5 0.4 24.1 10.1 26.4 23.5 0.1 0.6 0.3 1.2 0.5 1.8 0 24.4 0 48.7 0 73z"/><g display="none" transform="translate(-99.700004,-8.3999996)"><g display="inline"><path d="M8 207.8C6.9 207.3 6 206.7 5.3 205.9 0.6 200-1.1 193.2 1.1 185.9 4.3 175.6 5.4 165 5 154.3 4.8 149.9 4.3 145.4 4.9 141 7.1 124.1 12.9 123.8 10.5 98.8 10 94.1 11.6 90.7 15.1 88.7 18.7 86.6 20.2 82.8 20.7 77.9 21.2 73.1 21.9 69 22.6 65.7 24 59.1 25.7 52.6 26.7 45.9 27.6 39.6 25 36.5 18.5 33.6 13.6 31.5 6.4 29.1 2.4 26.4-0.7 24.3-1 21.7 0.6 18.3 3.2 12.8 3.7 7 3 1.1 2.3-4.7-1-7-7.4-6.9c-5.6 0.1-9 2.9-9.4 8.4-0.5 5.9-0.1 11.9 2.8 17.2 1.7 3.1 0.6 5.3-1.4 7.4-1.3 1.2-4.2 2.2-6 3.1-4.4 2.1-9 3.8-13.1 6.1-6.2 3.6-5.8 9.2-4.7 14.7 1.8 9.1 3.9 17 6.3 30 0.6 3 2.5 6.7 4.5 8 4.9 3.2 5.3 7.9 5.2 13.9-0.1 14.8 1.9 10.6 2.3 20.8 0.5 9.8 1.8 19.6 2.1 29.4 0.2 10.7 0.2 21.3 3.6 31.7 2.6 7.9 1.6 15.8-4.1 22.4-0.5 0.6-1.3 1.2-2.2 1.6h-23.4v3.3h1.1v6.4h74.1v-6.4h1.3v-3.3H8z" fill="#ffb900"/></g><g display="inline"><path d="m57.4 332.9c3.6-2.1 5.1-5.9 5.6-10.8 0.5-4.8 1.2-8.9 1.9-12.2 1.4-6.6 3.1-13.1 4.1-19.8 0.9-6.3-1.7-9.4-8.2-12.3-4.9-2.1-12.1-4.5-16.1-7.2-3.1-2.1-3.4-4.7-1.8-8.1 2.6-5.5 3.1-11.3 2.4-17.2-0.7-5.7-4.7-8-10-8-5.6 0-9.3 2.9-9.8 8.4-0.5 5.9-0.1 11.9 2.8 17.2 1.7 3.1 0.6 5.3-1.4 7.4-1.3 1.2-4.2 2.2-6 3.1-4.4 2.1-9 3.8-13.1 6.1-6.2 3.6-5.8 9.2-4.7 14.7 1.8 9.1 3.9 17 6.3 30 0.6 3 2.5 6.7 4.5 8 2.3 1.5 3.6 3.3 4.3 5.4h35.1c0.8-1.9 2.1-3.5 4.1-4.7z" fill="#ffb900"/></g><g display="inline"><path d="m96.5 113.3c3.6-2.1 5.1-5.9 5.6-10.8 0.5-4.8 1.2-8.9 1.9-12.2 1.4-6.6 3.1-13.1 4.1-19.8C109 64.2 106.4 61.1 99.9 58.2 95 56.1 87.8 53.7 83.8 51 80.7 48.9 80.4 46.3 82 42.9c2.6-5.5 3.1-11.3 2.4-17.2-0.7-5.7-4-8.1-10.4-8-5.6 0.1-9 2.9-9.4 8.4-0.5 5.9-0.1 11.9 2.8 17.2 1.7 3.1 0.6 5.3-1.4 7.4-1.3 1.2-4.2 2.2-6 3.1-4.4 2.1-9 3.8-13.1 6.1-6.2 3.6-5.8 9.2-4.7 14.7 1.8 9.1 3.9 17 6.3 30 0.6 3 2.5 6.7 4.5 8 2.3 1.5 3.6 3.3 4.3 5.4h35.1c0.8-1.9 2.1-3.5 4.1-4.7z" fill="#ffb900"/></g></g></svg>