<?xml version="1.0" encoding="UTF-8" standalone="no"?>
<!-- Created with Inkscape (http://www.inkscape.org/) -->
<svg
   xmlns:svg="http://www.w3.org/2000/svg"
   xmlns="http://www.w3.org/2000/svg"
   version="1.0"
   width="1026"
   height="684"
   viewBox="0 0 1200 800"
   id="svg2"
   xml:space="preserve"><defs
     id="defs246" /><rect
     width="1200"
     height="800"
     x="0"
     y="0"
     id="rect238"
     style="fill:#c02026" /><path
     d="M 574.63235,447.05882 L 499.50139,420.7154 L 441.76033,475.5297 L 443.59767,395.93534 L 373.6232,357.95888 L 449.8897,335.11029 L 464.38416,256.82524 L 509.68211,322.29839 L 588.61465,311.89203 L 540.34382,375.20526 L 574.63235,447.05882 z"
     transform="matrix(1.163484,-0.1193619,0.1193619,1.163484,124.33309,28.46229)"
     id="path2634"
     style="opacity:1;fill:#f6f0f5;fill-opacity:1;fill-rule:nonzero;stroke:#aa0000;stroke-width:1.20000005;stroke-linecap:butt;stroke-linejoin:miter;stroke-miterlimit:4;stroke-dasharray:none;stroke-dashoffset:0;stroke-opacity:1" /><path
     d="M 352.64799,399.99999 C 352.64799,288.89799 443.67898,198.83799 554.77598,198.83799 C 573.59798,198.83799 591.74697,201.60299 609.02697,206.44999 C 565.47698,170.29699 509.54598,148.54499 448.52099,148.54499 C 309.64799,148.54499 197.076,261.13799 197.076,399.99999 C 197.076,538.87198 309.64799,651.45398 448.52099,651.45398 C 509.54099,651.45398 565.47298,629.70298 609.01699,593.55897 C 591.73697,598.39598 573.59899,601.16497 554.77598,601.16497 C 443.67999,601.16598 352.64799,511.10198 352.64799,399.99999 z"
     id="path241"
     style="fill:#f6f0f5;fill-opacity:1" /></svg>